{
    "asset" : {
        "generator" : "Khronos glTF Blender I/O v1.8.19",
        "version" : "2.0"
    },
    "scene" : 0,
    "scenes" : [
        {
            "name" : "Scene",
            "nodes" : [
                0
            ]
        }
    ],
    "nodes" : [
        {
            "mesh" : 0,
            "name" : "coin",
            "scale" : [
                0.0010000000474974513,
                0.0010000000474974513,
                0.0010000000474974513
            ],
            "translation" : [
                0,
                0.012507220730185509,
                0.0011010715970769525
            ]
        }
    ],
    "materials" : [
        {
            "doubleSided" : true,
            "name" : "bronze.001",
            "normalTexture" : {
                "index" : 0
            },
            "pbrMetallicRoughness" : {
                "baseColorTexture" : {
                    "index" : 1
                },
                "metallicRoughnessTexture" : {
                    "index" : 2
                },
                "roughnessFactor" : 0.5527864098548889
            }
        },
        {
            "doubleSided" : true,
            "name" : "silver.001",
            "pbrMetallicRoughness" : {
                "baseColorTexture" : {
                    "index" : 3
                },
                "metallicRoughnessTexture" : {
                    "index" : 4
                },
                "roughnessFactor" : 0.5527864098548889
            }
        },
        {
            "doubleSided" : true,
            "name" : "Material #37",
            "normalTexture" : {
                "index" : 5
            },
            "pbrMetallicRoughness" : {
                "baseColorTexture" : {
                    "index" : 6
                },
                "metallicRoughnessTexture" : {
                    "index" : 7
                },
                "roughnessFactor" : 0.5527864098548889
            }
        }
    ],
    "meshes" : [
        {
            "name" : "Mesh.003",
            "primitives" : [
                {
                    "attributes" : {
                        "POSITION" : 0,
                        "NORMAL" : 1,
                        "TEXCOORD_0" : 2
                    },
                    "indices" : 3,
                    "material" : 0
                },
                {
                    "attributes" : {
                        "POSITION" : 4,
                        "NORMAL" : 5,
                        "TEXCOORD_0" : 6
                    },
                    "indices" : 7,
                    "material" : 1
                },
                {
                    "attributes" : {
                        "POSITION" : 8,
                        "NORMAL" : 9,
                        "TEXCOORD_0" : 10
                    },
                    "indices" : 11,
                    "material" : 2
                }
            ]
        }
    ],
    "textures" : [
        {
            "sampler" : 0,
            "source" : 0
        },
        {
            "sampler" : 0,
            "source" : 1
        },
        {
            "sampler" : 0,
            "source" : 2
        },
        {
            "sampler" : 0,
            "source" : 3
        },
        {
            "sampler" : 0,
            "source" : 4
        },
        {
            "sampler" : 0,
            "source" : 5
        },
        {
            "sampler" : 0,
            "source" : 6
        },
        {
            "sampler" : 0,
            "source" : 7
        }
    ],
    "images" : [
        {
            "bufferView" : 4,
            "mimeType" : "image/jpeg",
            "name" : "base_bronze_Normal"
        },
        {
            "bufferView" : 5,
            "mimeType" : "image/jpeg",
            "name" : "base_bronze_AlbedoTransparency"
        },
        {
            "bufferView" : 6,
            "mimeType" : "image/png",
            "name" : "base_bronze_MetallicSmoothness"
        },
        {
            "bufferView" : 11,
            "mimeType" : "image/jpeg",
            "name" : "base_silver_AlbedoTransparency"
        },
        {
            "bufferView" : 12,
            "mimeType" : "image/png",
            "name" : "base_silver_MetallicSmoothness"
        },
        {
            "bufferView" : 17,
            "mimeType" : "image/jpeg",
            "name" : "low_Material _37_Normal"
        },
        {
            "bufferView" : 18,
            "mimeType" : "image/jpeg",
            "name" : "low_Material _37_AlbedoTransparency"
        },
        {
            "bufferView" : 19,
            "mimeType" : "image/png",
            "name" : "low_Material _37_MetallicSmoothness"
        }
    ],
    "accessors" : [
        {
            "bufferView" : 0,
            "componentType" : 5126,
            "count" : 10233,
            "max" : [
                86.2017822265625,
                83.02410888671875,
                3.6417996883392334
            ],
            "min" : [
                -83.02416229248047,
                -83.02423095703125,
                -4.646687984466553
            ],
            "type" : "VEC3"
        },
        {
            "bufferView" : 1,
            "componentType" : 5126,
            "count" : 10233,
            "type" : "VEC3"
        },
        {
            "bufferView" : 2,
            "componentType" : 5126,
            "count" : 10233,
            "type" : "VEC2"
        },
        {
            "bufferView" : 3,
            "componentType" : 5123,
            "count" : 28878,
            "type" : "SCALAR"
        },
        {
            "bufferView" : 7,
            "componentType" : 5126,
            "count" : 14673,
            "max" : [
                115.00629425048828,
                115.00000762939453,
                5.284371376037598
            ],
            "min" : [
                -114.99994659423828,
                -115,
                -7.000021934509277
            ],
            "type" : "VEC3"
        },
        {
            "bufferView" : 8,
            "componentType" : 5126,
            "count" : 14673,
            "type" : "VEC3"
        },
        {
            "bufferView" : 9,
            "componentType" : 5126,
            "count" : 14673,
            "type" : "VEC2"
        },
        {
            "bufferView" : 10,
            "componentType" : 5123,
            "count" : 67791,
            "type" : "SCALAR"
        },
        {
            "bufferView" : 13,
            "componentType" : 5126,
            "count" : 121,
            "max" : [
                83.01781463623047,
                83.02410888671875,
                1.9839187860488892
            ],
            "min" : [
                -83.03050994873047,
                -83.02423095703125,
                1.9838895797729492
            ],
            "type" : "VEC3"
        },
        {
            "bufferView" : 14,
            "componentType" : 5126,
            "count" : 121,
            "type" : "VEC3"
        },
        {
            "bufferView" : 15,
            "componentType" : 5126,
            "count" : 121,
            "type" : "VEC2"
        },
        {
            "bufferView" : 16,
            "componentType" : 5123,
            "count" : 360,
            "type" : "SCALAR"
        }
    ],
    "bufferViews" : [
        {
            "buffer" : 0,
            "byteLength" : 122796,
            "byteOffset" : 0
        },
        {
            "buffer" : 0,
            "byteLength" : 122796,
            "byteOffset" : 122796
        },
        {
            "buffer" : 0,
            "byteLength" : 81864,
            "byteOffset" : 245592
        },
        {
            "buffer" : 0,
            "byteLength" : 57756,
            "byteOffset" : 327456
        },
        {
            "buffer" : 0,
            "byteLength" : 36943,
            "byteOffset" : 385212
        },
        {
            "buffer" : 0,
            "byteLength" : 17013,
            "byteOffset" : 422156
        },
        {
            "buffer" : 0,
            "byteLength" : 15799,
            "byteOffset" : 439172
        },
        {
            "buffer" : 0,
            "byteLength" : 176076,
            "byteOffset" : 454972
        },
        {
            "buffer" : 0,
            "byteLength" : 176076,
            "byteOffset" : 631048
        },
        {
            "buffer" : 0,
            "byteLength" : 117384,
            "byteOffset" : 807124
        },
        {
            "buffer" : 0,
            "byteLength" : 135582,
            "byteOffset" : 924508
        },
        {
            "buffer" : 0,
            "byteLength" : 17011,
            "byteOffset" : 1060092
        },
        {
            "buffer" : 0,
            "byteLength" : 15799,
            "byteOffset" : 1077104
        },
        {
            "buffer" : 0,
            "byteLength" : 1452,
            "byteOffset" : 1092904
        },
        {
            "buffer" : 0,
            "byteLength" : 1452,
            "byteOffset" : 1094356
        },
        {
            "buffer" : 0,
            "byteLength" : 968,
            "byteOffset" : 1095808
        },
        {
            "buffer" : 0,
            "byteLength" : 720,
            "byteOffset" : 1096776
        },
        {
            "buffer" : 0,
            "byteLength" : 84229,
            "byteOffset" : 1097496
        },
        {
            "buffer" : 0,
            "byteLength" : 125830,
            "byteOffset" : 1181728
        },
        {
            "buffer" : 0,
            "byteLength" : 351847,
            "byteOffset" : 1307560
        }
    ],
    "samplers" : [
        {
            "magFilter" : 9729,
            "minFilter" : 9987
        }
    ],
    "buffers" : [
        {
            "byteLength" : 1659408,
            "uri" : "data:application/octet-stream;base64,"
        }
    ]
}
