{
  "asset": {
    "generator": "Khronos glTF Blender I/O v1.8.19",
    "version": "2.0"
  },
  "scene": 0,
  "scenes": [
    {
      "name": "Scene",
      "nodes": [0]
    }
  ],
  "nodes": [
    {
      "mesh": 0,
      "name": "Euro1",
      "scale": [
        0.0010000000474974513, 0.0010000000474974513, 0.0010000000474974513
      ],
      "translation": [0, 0.012507000006735325, 0]
    }
  ],
  "materials": [
    {
      "doubleSided": true,
      "name": "bornze_main",
      "normalTexture": {
        "index": 0
      },
      "pbrMetallicRoughness": {
        "baseColorTexture": {
          "index": 1
        },
        "metallicRoughnessTexture": {
          "index": 2
        },
        "roughnessFactor": 0.3436959981918335
      }
    },
    {
      "doubleSided": true,
      "name": "silver_main",
      "normalTexture": {
        "index": 3
      },
      "pbrMetallicRoughness": {
        "baseColorTexture": {
          "index": 4
        },
        "metallicRoughnessTexture": {
          "index": 5
        },
        "roughnessFactor": 0.3436959981918335
      }
    },
    {
      "doubleSided": true,
      "name": "normal",
      "normalTexture": {
        "index": 6
      },
      "pbrMetallicRoughness": {
        "baseColorTexture": {
          "index": 7
        },
        "metallicRoughnessTexture": {
          "index": 8
        },
        "roughnessFactor": 0.3436959981918335
      }
    }
  ],
  "meshes": [
    {
      "name": "Mesh.003",
      "primitives": [
        {
          "attributes": {
            "POSITION": 0,
            "NORMAL": 1,
            "TEXCOORD_0": 2,
            "TEXCOORD_1": 3
          },
          "indices": 4,
          "material": 0
        },
        {
          "attributes": {
            "POSITION": 5,
            "NORMAL": 6,
            "TEXCOORD_0": 7,
            "TEXCOORD_1": 8
          },
          "indices": 9,
          "material": 1
        },
        {
          "attributes": {
            "POSITION": 10,
            "NORMAL": 11,
            "TEXCOORD_0": 12,
            "TEXCOORD_1": 13
          },
          "indices": 14,
          "material": 2
        }
      ]
    }
  ],
  "textures": [
    {
      "sampler": 0,
      "source": 0
    },
    {
      "sampler": 0,
      "source": 1
    },
    {
      "sampler": 0,
      "source": 2
    },
    {
      "sampler": 0,
      "source": 3
    },
    {
      "sampler": 0,
      "source": 4
    },
    {
      "sampler": 0,
      "source": 5
    },
    {
      "sampler": 0,
      "source": 6
    },
    {
      "sampler": 0,
      "source": 7
    },
    {
      "sampler": 0,
      "source": 8
    }
  ],
  "images": [
    {
      "bufferView": 5,
      "mimeType": "image/jpeg",
      "name": "mainEuro_1025_bornze_main_Normal"
    },
    {
      "bufferView": 6,
      "mimeType": "image/jpeg",
      "name": "mainEuro_1025_bornze_main_BaseColor"
    },
    {
      "bufferView": 7,
      "mimeType": "image/png",
      "name": "mainEuro_1025_bornze_main_Metallic"
    },
    {
      "bufferView": 13,
      "mimeType": "image/jpeg",
      "name": "mainEuro_1025_silber_main_Normal"
    },
    {
      "bufferView": 14,
      "mimeType": "image/jpeg",
      "name": "mainEuro_1025_silber_main_BaseColor"
    },
    {
      "bufferView": 15,
      "mimeType": "image/png",
      "name": "mainEuro_1025_silber_main_Metallic"
    },
    {
      "bufferView": 21,
      "mimeType": "image/jpeg",
      "name": "low_Material _37_Normal"
    },
    {
      "bufferView": 22,
      "mimeType": "image/jpeg",
      "name": "low_Material _37_BaseColor"
    },
    {
      "bufferView": 23,
      "mimeType": "image/png",
      "name": "low_Material _37_Metallic"
    }
  ],
  "accessors": [
    {
      "bufferView": 0,
      "componentType": 5126,
      "count": 12091,
      "max": [86.2017822265625, 83.02410888671875, 4.279633045196533],
      "min": [-83.02416229248047, -83.02423095703125, -4.646687984466553],
      "type": "VEC3"
    },
    {
      "bufferView": 1,
      "componentType": 5126,
      "count": 12091,
      "type": "VEC3"
    },
    {
      "bufferView": 2,
      "componentType": 5126,
      "count": 12091,
      "type": "VEC2"
    },
    {
      "bufferView": 3,
      "componentType": 5126,
      "count": 12091,
      "type": "VEC2"
    },
    {
      "bufferView": 4,
      "componentType": 5123,
      "count": 33975,
      "type": "SCALAR"
    },
    {
      "bufferView": 8,
      "componentType": 5126,
      "count": 17279,
      "max": [115.00629425048828, 115.00000762939453, 5.284371376037598],
      "min": [-114.99994659423828, -115, -7.000021934509277],
      "type": "VEC3"
    },
    {
      "bufferView": 9,
      "componentType": 5126,
      "count": 17279,
      "type": "VEC3"
    },
    {
      "bufferView": 10,
      "componentType": 5126,
      "count": 17279,
      "type": "VEC2"
    },
    {
      "bufferView": 11,
      "componentType": 5126,
      "count": 17279,
      "type": "VEC2"
    },
    {
      "bufferView": 12,
      "componentType": 5123,
      "count": 72303,
      "type": "SCALAR"
    },
    {
      "bufferView": 16,
      "componentType": 5126,
      "count": 361,
      "max": [83.01781463623047, 83.02410888671875, 3.6882243156433105],
      "min": [-83.03050994873047, -83.02423095703125, 3.5591912269592285],
      "type": "VEC3"
    },
    {
      "bufferView": 17,
      "componentType": 5126,
      "count": 361,
      "type": "VEC3"
    },
    {
      "bufferView": 18,
      "componentType": 5126,
      "count": 361,
      "type": "VEC2"
    },
    {
      "bufferView": 19,
      "componentType": 5126,
      "count": 361,
      "type": "VEC2"
    },
    {
      "bufferView": 20,
      "componentType": 5123,
      "count": 1800,
      "type": "SCALAR"
    }
  ],
  "bufferViews": [
    {
      "buffer": 0,
      "byteLength": 145092,
      "byteOffset": 0
    },
    {
      "buffer": 0,
      "byteLength": 145092,
      "byteOffset": 145092
    },
    {
      "buffer": 0,
      "byteLength": 96728,
      "byteOffset": 290184
    },
    {
      "buffer": 0,
      "byteLength": 96728,
      "byteOffset": 386912
    },
    {
      "buffer": 0,
      "byteLength": 67950,
      "byteOffset": 483640
    },
    {
      "buffer": 0,
      "byteLength": 38193,
      "byteOffset": 551592
    },
    {
      "buffer": 0,
      "byteLength": 17014,
      "byteOffset": 589788
    },
    {
      "buffer": 0,
      "byteLength": 15799,
      "byteOffset": 606804
    },
    {
      "buffer": 0,
      "byteLength": 207348,
      "byteOffset": 622604
    },
    {
      "buffer": 0,
      "byteLength": 207348,
      "byteOffset": 829952
    },
    {
      "buffer": 0,
      "byteLength": 138232,
      "byteOffset": 1037300
    },
    {
      "buffer": 0,
      "byteLength": 138232,
      "byteOffset": 1175532
    },
    {
      "buffer": 0,
      "byteLength": 144606,
      "byteOffset": 1313764
    },
    {
      "buffer": 0,
      "byteLength": 30509,
      "byteOffset": 1458372
    },
    {
      "buffer": 0,
      "byteLength": 17012,
      "byteOffset": 1488884
    },
    {
      "buffer": 0,
      "byteLength": 15799,
      "byteOffset": 1505896
    },
    {
      "buffer": 0,
      "byteLength": 4332,
      "byteOffset": 1521696
    },
    {
      "buffer": 0,
      "byteLength": 4332,
      "byteOffset": 1526028
    },
    {
      "buffer": 0,
      "byteLength": 2888,
      "byteOffset": 1530360
    },
    {
      "buffer": 0,
      "byteLength": 2888,
      "byteOffset": 1533248
    },
    {
      "buffer": 0,
      "byteLength": 3600,
      "byteOffset": 1536136
    },
    {
      "buffer": 0,
      "byteLength": 78133,
      "byteOffset": 1539736
    },
    {
      "buffer": 0,
      "byteLength": 17014,
      "byteOffset": 1617872
    },
    {
      "buffer": 0,
      "byteLength": 15799,
      "byteOffset": 1634888
    }
  ],
  "samplers": [
    {
      "magFilter": 9729,
      "minFilter": 9987
    }
  ],
  "buffers": [
    {
      "byteLength": 1650688,
      "uri": "data:application/octet-stream;base64,"
    }
  ]
}
